<svg width="57" height="57" viewBox="0 0 57 57" fill="none" xmlns="http://www.w3.org/2000/svg">
<g clip-path="url(#clip0_19_7)">
<path d="M28.4771 56.9888C27.4293 56.9847 26.3802 57.0179 25.3366 56.9085C24.7913 56.8517 24.2487 56.7562 23.7076 56.6634C22.3747 56.4363 21.0598 56.122 19.7754 55.7038C17.9886 55.1236 16.2724 54.3786 14.6267 53.4633C13.0973 52.6144 11.6634 51.6285 10.3181 50.5207C9.03092 49.4614 7.85169 48.283 6.76659 47.0132C5.7493 45.8237 4.83305 44.5594 4.0289 43.219C2.85383 41.261 1.91128 39.1963 1.24555 37.0057C0.929979 35.9657 0.649013 34.9175 0.441403 33.854C0.32099 33.2323 0.249018 32.5967 0.160438 31.968C-0.0623969 30.3922 0.0109587 28.8122 0.00819053 27.2336C0.00542239 26.0136 0.175663 24.8089 0.381888 23.6055C0.720985 21.6184 1.27323 19.6923 2.02754 17.827C2.71819 16.1196 3.57493 14.4981 4.58115 12.9528C5.16384 12.0568 5.79912 11.1997 6.47316 10.3744C7.35343 9.29704 8.32781 8.30557 9.35479 7.36671C10.3126 6.49156 11.3299 5.69257 12.3997 4.96142C14.2862 3.67223 16.2987 2.62814 18.4356 1.81391C19.7547 1.31125 21.1097 0.933218 22.4799 0.621652C23.6176 0.362706 24.7774 0.232541 25.9387 0.0968362C27.1663 -0.0457919 28.3912 0.0109824 29.6175 0.00405868C30.6749 -0.00286501 31.7158 0.184075 32.7607 0.323933C34.1988 0.516412 35.5967 0.868136 36.9794 1.29048C38.5115 1.75852 39.9814 2.38304 41.4112 3.10864C42.9876 3.90902 44.4686 4.8548 45.8692 5.92797C47.6007 7.25317 49.1509 8.77222 50.5322 10.4547C52.0297 12.2798 53.2878 14.2655 54.2885 16.4063C55.0719 18.0832 55.6892 19.8197 56.139 21.6198C56.5307 23.1832 56.8241 24.7687 56.921 26.3681C57.0179 27.9702 57.0456 29.5848 56.8656 31.1911C56.7618 32.1161 56.6525 33.0412 56.4739 33.9537C56.2525 35.0933 55.9549 36.215 55.6034 37.3228C55.2172 38.5413 54.7328 39.7225 54.175 40.8691C53.3902 42.4809 52.4781 44.018 51.4055 45.4609C50.3328 46.9024 49.1425 48.2359 47.8304 49.4586C46.7149 50.4986 45.5177 51.4402 44.2443 52.2821C42.7717 53.2556 41.2326 54.1044 39.6049 54.7885C38.4036 55.2939 37.1759 55.7218 35.9178 56.0666C34.7967 56.3726 33.6618 56.6011 32.5171 56.7825C31.3213 56.9722 30.113 57.0234 28.902 56.9874C28.7622 56.9847 28.6196 56.9888 28.4771 56.9888ZM2.01785 28.4937C2.03031 43.1442 13.716 54.9242 28.3179 54.9906C43.1357 55.0585 54.892 43.2647 54.9224 28.5463C54.9529 13.8445 43.0873 2.08948 28.5006 2.06317C13.8987 2.03824 2.0317 13.8611 2.01785 28.4937Z" fill="url(#paint0_radial_19_7)"/>
<path d="M37.6106 37.4143C40.2113 37.4143 42.8119 37.4101 45.4126 37.4198C45.7254 37.4212 45.8721 37.3381 45.9801 37.0196C46.3261 36.006 47.3392 35.2139 48.5101 35.1585C49.8693 35.0948 50.989 36.1015 51.3295 37.1193C51.6714 38.1426 51.2824 39.508 50.4271 40.1657C49.9039 40.5687 49.3157 40.8401 48.6679 40.8262C47.4901 40.8027 46.5904 40.253 46.0756 39.1701C45.9358 38.8765 45.7752 38.7796 45.4514 38.781C39.7449 38.7921 34.0383 38.7893 28.3318 38.7879C27.8557 38.7879 27.8502 38.7838 27.8502 38.3116C27.8502 33.6408 27.8502 28.9701 27.8571 24.3008C27.8571 24.0972 27.799 24.0321 27.6011 24.0335C25.6481 24.0377 23.6952 24.0391 21.7423 24.0335C21.5209 24.0335 21.4267 24.1498 21.3395 24.3257C20.1991 26.6188 19.0531 28.9092 17.9084 31.1995C16.6822 33.6533 15.4573 36.1057 14.231 38.5594C14.1452 38.7298 14.0524 38.8959 13.9666 39.0662C13.8933 39.2116 13.9293 39.2809 14.1036 39.2629C14.5133 39.2213 14.9216 39.249 15.3299 39.2823C15.7216 39.3155 15.8559 39.4789 15.849 39.9414C15.842 40.3388 15.6579 40.5576 15.2967 40.5604C14.3929 40.5673 13.4891 40.5562 12.5867 40.5659C11.8628 40.5728 11.1404 40.5355 10.4165 40.5936C10.0608 40.6227 9.80473 40.397 9.7812 40.0826C9.7383 39.4955 9.85041 39.2947 10.3099 39.2643C10.8123 39.2324 11.3203 39.231 11.8227 39.2573C12.0552 39.2698 12.1687 39.1978 12.2656 39.0012C12.8774 37.7632 13.4988 36.5294 14.1175 35.2956C14.7915 33.951 15.4669 32.6064 16.1424 31.2619C17.1638 29.2277 18.1853 27.1935 19.2067 25.1593C19.3562 24.8616 19.4973 24.5597 19.6468 24.262C19.7271 24.1028 19.687 24.0294 19.507 24.0363C19.46 24.0377 19.4115 24.0363 19.3645 24.0363C15.849 24.0363 12.3334 24.0363 8.81789 24.0363C8.41236 24.0363 8.41375 24.0377 8.41513 24.4365C8.41652 24.8754 8.41236 25.313 8.4179 25.752C8.42067 26.0012 8.34178 26.2297 8.11617 26.3239C7.85182 26.4347 7.55563 26.443 7.28989 26.2934C7.14871 26.2145 7.0975 26.0663 7.0975 25.9015C7.09888 24.2149 7.09473 22.5269 7.10027 20.8403C7.10165 20.5011 7.31065 20.3224 7.67742 20.3113C8.12171 20.2989 8.38745 20.4927 8.40683 20.8929C8.43036 21.3582 8.43866 21.8276 8.40821 22.2929C8.38883 22.5989 8.49679 22.6571 8.77499 22.6557C12.5673 22.6488 16.3583 22.6488 20.1506 22.6543C20.3721 22.6543 20.5022 22.5809 20.5991 22.3857C21.7907 19.9901 22.9838 17.5973 24.1866 15.2072C24.3028 14.9746 24.2433 14.9358 24.0163 14.9358C20.8731 14.9399 17.7285 14.9399 14.5853 14.9358C14.3791 14.9358 14.3029 15.0064 14.2434 15.2155C13.9528 16.2305 13.3106 16.9146 12.2836 17.2248C10.7819 17.679 9.15145 16.7678 8.76668 15.1892C8.51755 14.1659 8.76253 13.2173 9.55699 12.4723C10.1424 11.924 10.8345 11.6138 11.6538 11.672C12.7293 11.7481 13.5168 12.2882 14.0248 13.2229C14.1576 13.468 14.2891 13.5677 14.5673 13.5677C18.0828 13.5594 21.5984 13.5607 25.1139 13.5635C25.4059 13.5635 25.7063 13.5455 25.9443 13.7823C26.2724 14.1077 26.3249 14.3944 26.1146 14.8125C25.4793 16.081 24.844 17.3494 24.2073 18.6178C23.5845 19.8599 22.9603 21.102 22.3361 22.3455C22.1949 22.6266 22.2073 22.6502 22.5118 22.6502C24.1879 22.6516 25.8654 22.6474 27.5415 22.6543C27.7754 22.6557 27.8599 22.5754 27.8585 22.3386C27.8502 21.1754 27.8502 20.0122 27.8571 18.8504C27.8585 18.6164 27.7768 18.5264 27.5415 18.532C27.1042 18.543 26.6654 18.5403 26.2267 18.5333C25.7893 18.5264 25.6218 18.3326 25.6218 17.8562C25.6232 17.384 25.7672 17.2192 26.2211 17.2178C27.6979 17.2123 29.1747 17.2123 30.6515 17.2192C30.8854 17.2206 31.1138 17.1431 31.356 17.2441C31.6896 17.3826 31.6785 17.6526 31.6841 17.9324C31.6896 18.201 31.5913 18.3907 31.3242 18.4821C31.129 18.5486 30.9297 18.5347 30.7304 18.5361C30.3678 18.5375 30.0066 18.5417 29.6439 18.5347C29.446 18.5306 29.345 18.5929 29.3464 18.8103C29.3519 19.9929 29.3519 21.174 29.3477 22.3566C29.3464 22.5837 29.4488 22.6543 29.6605 22.6543C30.8896 22.6502 32.1186 22.6502 33.3477 22.6543C33.5567 22.6557 33.6384 22.574 33.6342 22.3663C33.6273 21.8996 33.63 21.4316 33.6328 20.9649C33.6356 20.5024 33.8307 20.3141 34.3013 20.3127C34.7442 20.3113 34.9477 20.5094 34.9491 20.9539C34.9504 22.5643 34.9518 24.1762 34.9504 25.7866C34.9504 26.2145 34.7761 26.3987 34.383 26.4014C33.8197 26.4042 33.637 26.256 33.6342 25.7838C33.63 25.2978 33.6273 24.8117 33.6356 24.3257C33.6384 24.1194 33.5622 24.0349 33.3519 24.0363C32.1131 24.0418 30.8744 24.0418 29.637 24.0377C29.4294 24.0377 29.3464 24.1235 29.3491 24.3285C29.3561 24.7577 29.3505 25.1856 29.3505 25.6149C29.3505 29.4091 29.3505 33.2019 29.3505 36.9961C29.3505 37.5209 29.3796 37.4198 29.7851 37.4184C32.3899 37.4101 35.0003 37.4143 37.6106 37.4143ZM47.115 37.9834C47.0458 38.8156 47.7987 39.526 48.6416 39.5218C49.515 39.5177 50.1669 38.8156 50.1613 37.8948C50.1558 37.1138 49.4402 36.4574 48.6153 36.4422C47.9108 36.4283 47.0583 37.0833 47.115 37.9834ZM11.4974 16.0283C12.3639 16.0283 13.0448 15.3651 13.0393 14.5259C13.0338 13.6411 12.3777 12.9888 11.4974 12.9916C10.6407 12.993 9.97082 13.6646 9.97359 14.5162C9.97497 15.3789 10.6296 16.027 11.4974 16.0283Z" fill="url(#paint1_linear_19_7)"/>
</g>
<defs>
<radialGradient id="paint0_radial_19_7" cx="0" cy="0" r="1" gradientUnits="userSpaceOnUse" gradientTransform="translate(5 8) rotate(41.5526) scale(88.1944 75.2716)">
<stop stop-color="white" stop-opacity="0.731099"/>
<stop stop-color="white"/>
<stop offset="1" stop-color="white" stop-opacity="0"/>
</radialGradient>
<linearGradient id="paint1_linear_19_7" x1="7.09729" y1="11.665" x2="27.1442" y2="59.2028" gradientUnits="userSpaceOnUse">
<stop stop-color="white"/>
<stop offset="1" stop-color="white" stop-opacity="0"/>
</linearGradient>
<clipPath id="clip0_19_7">
<rect width="57" height="57" fill="white"/>
</clipPath>
</defs>
</svg>
